<mxfile host="Electron" agent="Mozilla/5.0 (Windows NT 10.0; Win64; x64) AppleWebKit/537.36 (KHTML, like Gecko) draw.io/26.1.1 Chrome/132.0.6834.210 Electron/34.3.3 Safari/537.36" version="26.1.1">
  <diagram name="Página-1" id="MQsmbUR3DhokujSfEfEX">
    <mxGraphModel dx="3088" dy="2005" grid="1" gridSize="10" guides="1" tooltips="1" connect="1" arrows="1" fold="1" page="1" pageScale="1" pageWidth="827" pageHeight="1169" math="0" shadow="0">
      <root>
        <mxCell id="0" />
        <mxCell id="1" parent="0" />
        <mxCell id="I2-RCXqzzyCgxGpovsEg-12" style="edgeStyle=orthogonalEdgeStyle;rounded=0;orthogonalLoop=1;jettySize=auto;html=1;entryX=0;entryY=0.5;entryDx=0;entryDy=0;labelBackgroundColor=none;strokeColor=#788AA3;fontColor=default;" parent="1" target="I2-RCXqzzyCgxGpovsEg-6" edge="1">
          <mxGeometry relative="1" as="geometry">
            <mxPoint x="-1420" y="-1020" as="targetPoint" />
            <mxPoint x="-1440" y="-880" as="sourcePoint" />
          </mxGeometry>
        </mxCell>
        <mxCell id="I2-RCXqzzyCgxGpovsEg-13" style="edgeStyle=orthogonalEdgeStyle;rounded=0;orthogonalLoop=1;jettySize=auto;html=1;entryX=0;entryY=0.5;entryDx=0;entryDy=0;labelBackgroundColor=none;strokeColor=#788AA3;fontColor=default;" parent="1" target="I2-RCXqzzyCgxGpovsEg-7" edge="1">
          <mxGeometry relative="1" as="geometry">
            <mxPoint x="-1440" y="-880" as="sourcePoint" />
          </mxGeometry>
        </mxCell>
        <mxCell id="I2-RCXqzzyCgxGpovsEg-20" style="edgeStyle=orthogonalEdgeStyle;rounded=0;orthogonalLoop=1;jettySize=auto;html=1;entryX=0;entryY=0.5;entryDx=0;entryDy=0;labelBackgroundColor=none;strokeColor=#788AA3;fontColor=default;" parent="1" source="I2-RCXqzzyCgxGpovsEg-6" target="I2-RCXqzzyCgxGpovsEg-15" edge="1">
          <mxGeometry relative="1" as="geometry" />
        </mxCell>
        <mxCell id="I2-RCXqzzyCgxGpovsEg-6" value="&lt;div style=&quot;text-align: center;&quot;&gt;&lt;b style=&quot;background-color: transparent; color: light-dark(rgb(0, 0, 0), rgb(255, 255, 255));&quot;&gt;&lt;font style=&quot;font-size: 16px;&quot;&gt;Backend&lt;/font&gt;&lt;/b&gt;&lt;/div&gt;&lt;div style=&quot;text-align: center;&quot;&gt;&lt;b&gt;&lt;font style=&quot;font-size: 16px;&quot;&gt;(Node.js + Express)&lt;/font&gt;&lt;/b&gt;&lt;/div&gt;&lt;div&gt;&lt;ul&gt;&lt;li style=&quot;&quot;&gt;&lt;font style=&quot;font-size: 14px;&quot;&gt;Holerite por usuário&lt;/font&gt;&lt;/li&gt;&lt;li&gt;&lt;font style=&quot;font-size: 14px;&quot;&gt;Upload e download de documentos&lt;/font&gt;&lt;/li&gt;&lt;li&gt;&lt;font style=&quot;font-size: 14px;&quot;&gt;Relatórios Gerados&lt;/font&gt;&lt;/li&gt;&lt;/ul&gt;&lt;/div&gt;" style="rounded=1;whiteSpace=wrap;html=1;align=left;labelBackgroundColor=none;fillColor=#fff2cc;strokeColor=#d6b656;arcSize=10;" parent="1" vertex="1">
          <mxGeometry x="-1360" y="-1000" width="200" height="180" as="geometry" />
        </mxCell>
        <mxCell id="I2-RCXqzzyCgxGpovsEg-10" style="edgeStyle=orthogonalEdgeStyle;rounded=0;orthogonalLoop=1;jettySize=auto;html=1;entryX=0.5;entryY=1;entryDx=0;entryDy=0;labelBackgroundColor=none;strokeColor=#788AA3;fontColor=default;" parent="1" source="I2-RCXqzzyCgxGpovsEg-7" target="I2-RCXqzzyCgxGpovsEg-6" edge="1">
          <mxGeometry relative="1" as="geometry" />
        </mxCell>
        <mxCell id="I2-RCXqzzyCgxGpovsEg-7" value="&lt;b&gt;&lt;font style=&quot;font-size: 15px;&quot;&gt;Banco de Dados&lt;/font&gt;&lt;/b&gt;&lt;div&gt;&lt;font style=&quot;font-size: 14px;&quot;&gt;(Mongo DB)&lt;/font&gt;&lt;/div&gt;" style="rounded=1;whiteSpace=wrap;html=1;labelBackgroundColor=none;fillColor=#e1d5e7;strokeColor=#9673a6;" parent="1" vertex="1">
          <mxGeometry x="-1360" y="-760" width="200" height="80" as="geometry" />
        </mxCell>
        <mxCell id="I2-RCXqzzyCgxGpovsEg-9" style="edgeStyle=orthogonalEdgeStyle;rounded=0;orthogonalLoop=1;jettySize=auto;html=1;entryX=0.5;entryY=1;entryDx=0;entryDy=0;labelBackgroundColor=none;strokeColor=#788AA3;fontColor=default;" parent="1" source="I2-RCXqzzyCgxGpovsEg-8" target="I2-RCXqzzyCgxGpovsEg-7" edge="1">
          <mxGeometry relative="1" as="geometry" />
        </mxCell>
        <mxCell id="I2-RCXqzzyCgxGpovsEg-8" value="&lt;b&gt;&lt;font style=&quot;font-size: 15px;&quot;&gt;Armazenamento&amp;nbsp;&lt;/font&gt;&lt;/b&gt;&lt;div&gt;&lt;b&gt;&lt;font style=&quot;font-size: 15px;&quot;&gt;em Nuvem&lt;/font&gt;&lt;/b&gt;&lt;div&gt;&lt;font style=&quot;font-size: 14px;&quot;&gt;(AWS S3)&lt;/font&gt;&lt;/div&gt;&lt;/div&gt;" style="rounded=1;whiteSpace=wrap;html=1;labelBackgroundColor=none;fillColor=#e1d5e7;strokeColor=#9673a6;" parent="1" vertex="1">
          <mxGeometry x="-1360" y="-600" width="200" height="80" as="geometry" />
        </mxCell>
        <mxCell id="I2-RCXqzzyCgxGpovsEg-15" value="&lt;span style=&quot;font-size: 15px;&quot;&gt;&lt;b&gt;FrontEnd&lt;/b&gt;&lt;/span&gt;&lt;br&gt;&lt;div&gt;&lt;div&gt;&lt;font style=&quot;font-size: 14px;&quot;&gt;(React + Tailwind)&lt;/font&gt;&lt;/div&gt;&lt;/div&gt;" style="rounded=1;whiteSpace=wrap;html=1;labelBackgroundColor=none;fillColor=#dae8fc;strokeColor=#6c8ebf;" parent="1" vertex="1">
          <mxGeometry x="-1080" y="-960" width="200" height="80" as="geometry" />
        </mxCell>
        <mxCell id="I2-RCXqzzyCgxGpovsEg-17" style="edgeStyle=orthogonalEdgeStyle;rounded=0;orthogonalLoop=1;jettySize=auto;html=1;entryX=0.5;entryY=1;entryDx=0;entryDy=0;labelBackgroundColor=none;strokeColor=#788AA3;fontColor=default;" parent="1" source="I2-RCXqzzyCgxGpovsEg-18" target="I2-RCXqzzyCgxGpovsEg-15" edge="1">
          <mxGeometry relative="1" as="geometry" />
        </mxCell>
        <mxCell id="I2-RCXqzzyCgxGpovsEg-16" value="&lt;span style=&quot;font-size: 15px;&quot;&gt;&lt;b&gt;E-mails&lt;/b&gt;&lt;/span&gt;&lt;br&gt;&lt;div&gt;&lt;div&gt;&lt;font style=&quot;font-size: 14px;&quot;&gt;Notificações enviada&lt;/font&gt;&lt;/div&gt;&lt;/div&gt;" style="rounded=1;whiteSpace=wrap;html=1;labelBackgroundColor=none;fillColor=#f5f5f5;strokeColor=#666666;fontColor=#333333;" parent="1" vertex="1">
          <mxGeometry x="-1080" y="-720" width="200" height="80" as="geometry" />
        </mxCell>
        <mxCell id="I2-RCXqzzyCgxGpovsEg-19" value="" style="edgeStyle=orthogonalEdgeStyle;rounded=0;orthogonalLoop=1;jettySize=auto;html=1;entryX=0.5;entryY=1;entryDx=0;entryDy=0;labelBackgroundColor=none;strokeColor=#788AA3;fontColor=default;" parent="1" source="I2-RCXqzzyCgxGpovsEg-16" target="I2-RCXqzzyCgxGpovsEg-18" edge="1">
          <mxGeometry relative="1" as="geometry">
            <mxPoint x="-980" y="-760" as="sourcePoint" />
            <mxPoint x="-980" y="-870" as="targetPoint" />
          </mxGeometry>
        </mxCell>
        <mxCell id="I2-RCXqzzyCgxGpovsEg-18" value="Notificações&amp;nbsp;&lt;div&gt;enviadas&lt;/div&gt;" style="text;html=1;align=center;verticalAlign=middle;whiteSpace=wrap;rounded=0;fontSize=15;labelBackgroundColor=none;fontColor=#46495D;" parent="1" vertex="1">
          <mxGeometry x="-1050" y="-830" width="140" height="65" as="geometry" />
        </mxCell>
        <mxCell id="0YR5qv8PIess31HO2f3e-1" value="Autenticação&lt;div&gt;(Passaport.js)&lt;/div&gt;" style="image;aspect=fixed;html=1;points=[];align=center;fontSize=12;image=img/lib/azure2/security/Conditional_Access.svg;" vertex="1" parent="1">
          <mxGeometry x="-1560" y="-930" width="100" height="121.43" as="geometry" />
        </mxCell>
        <mxCell id="0YR5qv8PIess31HO2f3e-4" value="&lt;div&gt;Login&lt;/div&gt;Regras de Acesso" style="image;aspect=fixed;html=1;points=[];align=center;fontSize=12;image=img/lib/azure2/identity/AAD_Licenses.svg;" vertex="1" parent="1">
          <mxGeometry x="-1590" y="-748" width="66" height="68" as="geometry" />
        </mxCell>
        <mxCell id="0YR5qv8PIess31HO2f3e-5" style="edgeStyle=orthogonalEdgeStyle;rounded=0;orthogonalLoop=1;jettySize=auto;html=1;entryX=-0.015;entryY=0.574;entryDx=0;entryDy=0;entryPerimeter=0;exitX=-0.02;exitY=0.412;exitDx=0;exitDy=0;exitPerimeter=0;" edge="1" parent="1" source="0YR5qv8PIess31HO2f3e-1" target="0YR5qv8PIess31HO2f3e-4">
          <mxGeometry relative="1" as="geometry">
            <Array as="points">
              <mxPoint x="-1610" y="-880" />
              <mxPoint x="-1610" y="-709" />
            </Array>
          </mxGeometry>
        </mxCell>
        <mxCell id="0YR5qv8PIess31HO2f3e-6" value="" style="image;aspect=fixed;perimeter=ellipsePerimeter;html=1;align=center;shadow=0;dashed=0;fontColor=#4277BB;labelBackgroundColor=default;fontSize=12;spacingTop=3;image=img/lib/ibm/infrastructure/mobile_backend.svg;" vertex="1" parent="1">
          <mxGeometry x="-1400" y="-1060" width="100" height="100" as="geometry" />
        </mxCell>
        <mxCell id="0YR5qv8PIess31HO2f3e-7" value="" style="image;aspect=fixed;html=1;points=[];align=center;fontSize=12;image=img/lib/azure2/databases/SQL_Database.svg;" vertex="1" parent="1">
          <mxGeometry x="-1190" y="-777" width="85.5" height="114" as="geometry" />
        </mxCell>
        <mxCell id="0YR5qv8PIess31HO2f3e-8" value="" style="image;aspect=fixed;html=1;points=[];align=center;fontSize=12;image=img/lib/azure2/storage/Data_Box_Edge.svg;" vertex="1" parent="1">
          <mxGeometry x="-1450" y="-607" width="131.21" height="94" as="geometry" />
        </mxCell>
        <mxCell id="0YR5qv8PIess31HO2f3e-9" value="" style="image;aspect=fixed;html=1;points=[];align=center;fontSize=12;image=img/lib/azure2/app_services/App_Service_Domains.svg;" vertex="1" parent="1">
          <mxGeometry x="-1120" y="-1010" width="87.5" height="70" as="geometry" />
        </mxCell>
        <mxCell id="0YR5qv8PIess31HO2f3e-10" value="" style="html=1;verticalLabelPosition=bottom;align=center;labelBackgroundColor=#ffffff;verticalAlign=top;strokeWidth=2;strokeColor=#0080F0;shadow=0;dashed=0;shape=mxgraph.ios7.icons.pointer;" vertex="1" parent="1">
          <mxGeometry x="-930" y="-740" width="60" height="60" as="geometry" />
        </mxCell>
      </root>
    </mxGraphModel>
  </diagram>
</mxfile>
